<svg xmlns="http://www.w3.org/2000/svg" width="65" height="55" viewBox="0 0 61 61" fill="none">
    <g clip-path="url(#clip0_5_1407)">
        <g clip-path="url(#clip1_5_1407)">
            <g clip-path="url(#clip2_5_1407)">
                <path
                    d="M34.5982 1.75407C33.6822 1.46607 32.6172 1.38407 31.2982 1.53307C31.1732 1.54905 31.0469 1.51521 30.9466 1.43888C30.8463 1.36254 30.7801 1.24982 30.7622 1.12507C30.7557 1.06321 30.7616 1.00069 30.7794 0.941112C30.7973 0.881538 30.8268 0.8261 30.8662 0.778011C30.9057 0.729923 30.9543 0.690139 31.0092 0.660967C31.0641 0.631795 31.1243 0.613814 31.1862 0.608066C32.6062 0.447066 33.8172 0.529066 34.8972 0.868066C35.9802 1.20807 36.8992 1.79507 37.7472 2.60207C39.1972 3.97907 40.1102 5.81507 40.4612 7.69707C40.8912 10.0081 39.9412 12.1011 39.9412 14.3811C39.9412 15.1911 40.7642 15.7021 41.2412 16.2641C42.0732 17.2441 41.1112 19.7411 40.7742 20.7661C40.4192 21.8461 39.8472 23.3011 39.7912 24.4441V24.4571C40.0152 24.8871 40.5482 25.1271 40.8912 25.4571C42.1282 26.6501 42.5182 28.3911 42.5182 29.9261C42.5182 31.0531 42.0272 31.8861 41.1742 32.5761C40.7542 32.9151 40.3162 33.2181 39.8422 33.4761C39.8412 33.9401 39.8382 34.9421 39.8322 36.0751C39.8276 37.5282 39.8099 38.9813 39.7792 40.4341C39.7312 42.1711 39.9982 44.2481 40.2532 45.9791C40.3282 46.4921 40.4092 46.9641 40.4712 47.3071C40.5422 47.6971 41.1322 47.6071 41.4862 47.7251C42.0732 47.9211 42.4872 48.3321 42.6662 48.9251C42.9152 49.7571 43.1832 50.5821 43.3782 51.4291C43.6632 52.6741 44.9222 52.8591 45.7232 53.6311C46.1772 54.0691 46.3482 54.8961 46.5902 55.4761C47.1862 56.9081 44.9092 57.3421 43.9932 57.6611C41.2372 58.6211 38.4802 58.7011 35.5842 58.6611C35.5219 58.6613 35.4601 58.6493 35.4024 58.6257C35.3448 58.602 35.2923 58.5672 35.2481 58.5233C35.2039 58.4794 35.1688 58.4271 35.1448 58.3696C35.1208 58.3121 35.1083 58.2504 35.1082 58.1881C35.1137 58.0625 35.1682 57.9441 35.26 57.8583C35.3518 57.7725 35.4736 57.7261 35.5992 57.7291C38.3482 57.7671 40.9872 57.7201 43.6042 56.8061C43.8572 56.7171 45.8582 56.2211 45.6922 55.8231C45.4752 55.2991 45.2742 54.7581 45.0052 54.2581C44.4592 53.7841 43.7212 53.5821 43.1602 53.1201C42.6852 52.7301 42.5672 52.2141 42.4372 51.6431L42.4292 51.6091C42.2412 50.7891 41.9792 49.9891 41.7372 49.1841C41.5662 48.6161 40.9692 48.5241 40.4572 48.4551C39.7992 48.3671 39.6442 48.1571 39.5192 47.4671C39.4562 47.1171 39.3732 46.6361 39.2962 46.1101C39.0342 44.3331 38.7632 42.1941 38.8132 40.4091C38.8412 39.4281 38.8562 37.6291 38.8652 36.0691C38.8722 34.9021 38.8752 33.8731 38.8752 33.4311C38.8752 33.1891 38.8832 32.9221 39.1272 32.7941C40.2232 32.0741 41.5512 31.4311 41.5512 29.9261C41.5512 28.5051 41.1852 27.0581 40.2072 26.1161C39.7782 25.7021 39.2112 25.4221 38.9272 24.8741C38.4612 23.9751 39.5362 21.4481 39.8362 20.5341C40.0392 19.9161 41.0182 17.4731 40.4932 16.8541C39.8482 16.0941 38.9742 15.4841 38.9742 14.3811C38.9742 12.1681 39.9262 10.0971 39.5102 7.86207C39.1902 6.14507 38.3592 4.49107 37.0692 3.26507C36.3052 2.53907 35.5112 2.04007 34.5982 1.75407Z"
                    fill="#FF73E5" />
                <path fill-rule="evenodd" clip-rule="evenodd"
                    d="M37.8875 14.855C38.7815 10.762 39.3505 3.08197 31.9985 1.89797C25.8145 0.901966 23.2535 9.05197 22.3675 13.711L20.6295 15.577L19.2095 24.28C18.6305 24.54 17.4725 25.493 17.4725 27.234C17.4725 28.974 18.1045 30.135 18.4195 30.498C18.1565 32.259 17.7885 36.218 18.4195 37.958C18.7395 38.838 19.5225 39.515 20.5725 40.04L20.3265 49.312L18.1315 49.928L17.0335 53.302L15.9355 53.664L14.4725 56.204C16.8415 56.774 23.1565 58.255 29.4725 58.38C35.7885 58.504 42.1045 56.359 44.4725 55.478L44.1065 54.125L42.2775 52.576L41.1795 50.037C40.8135 49.312 40.2215 48.711 39.7165 48.587C39.1785 48.454 38.9605 48.929 38.6565 47.995L38.4725 47.441C38.0935 46.321 37.6825 36.923 37.5255 32.363C37.5255 32.363 38.3155 32.332 38.9455 32.208C39.7355 32.052 40.9985 30.498 40.9985 28.638C40.4485 26.461 38.9545 25.373 37.5255 25.373C38.3515 21.904 39.2405 18.97 39.3505 18.481C39.6665 17.082 38.8345 15.221 37.8875 14.854V14.855ZM34.9595 32.991C33.9925 36.845 33.7375 40.272 33.4955 40.511C32.8645 41.132 29.6525 41.074 26.1785 40.608C24.5705 40.392 22.8005 40.012 21.4225 39.52C21.8285 41.409 23.5885 44.953 27.5765 46.198C32.7565 47.815 34.1195 46.463 34.5935 45.323L34.9595 32.991Z"
                    fill="white" />
                <path fill-rule="evenodd" clip-rule="evenodd"
                    d="M22.7095 13.3621C21.3995 14.4761 20.7025 14.5801 20.8335 15.8721C20.8475 16.0091 21.3235 17.2871 21.2555 17.5811C20.9985 18.6851 20.7925 19.8011 20.5305 20.9041C20.3345 21.7271 20.4935 22.1051 21.0355 22.1051C21.8135 22.1051 21.6865 20.9841 22.4715 20.9841C24.0475 21.5111 23.3715 23.6941 22.3065 23.8931C22.3065 23.8931 21.9835 23.9231 21.6165 23.8931C20.9245 23.8371 21.3025 22.0731 20.5245 22.6001C20.2585 22.7801 17.6935 26.3981 17.6865 27.0501C17.6665 29.0401 19.0265 30.0021 19.8605 27.2601C20.1755 26.9561 20.4065 27.2601 20.4065 27.2601C20.4905 27.5611 20.6115 27.7871 20.7405 27.8851C21.3005 28.3111 21.6145 28.6261 21.7295 29.1911C21.8995 30.0321 21.7645 30.8701 21.3155 31.6731C20.9725 32.2851 20.2635 32.0461 19.8215 31.5601C19.8215 31.5601 18.7035 34.3751 18.6835 34.9721C18.6405 36.2561 19.1035 37.2551 19.0545 38.5761C19.0405 38.9511 19.0665 39.0201 19.3245 39.2771C19.6775 39.6301 20.1725 40.4251 20.5245 40.4921C20.5395 43.6161 20.5245 45.9871 20.1805 50.1021C20.1805 50.1021 18.3395 49.9771 18.1015 50.1901C17.7135 50.5381 17.3755 52.7311 17.3755 52.7311L18.6555 53.2111C17.8955 53.4601 16.5205 53.5131 15.8725 53.8951C15.3905 54.1791 14.4725 55.9981 14.4725 55.9981C16.3725 57.8981 20.5575 57.4951 23.0955 57.8981C24.5185 58.1231 29.3425 58.3861 29.3425 58.3861C29.5085 57.4331 29.8565 56.9361 30.0125 55.9761C31.5365 55.9761 38.3685 55.5681 38.3685 53.3261C38.3685 53.1731 38.2055 53.0961 37.8845 53.0961C35.0055 53.9791 32.5095 53.9791 30.5895 54.1621V52.3861C33.4255 52.3741 36.9725 51.9571 40.1865 50.4571C40.5165 50.3111 41.2295 49.4921 40.3965 48.9641C39.9235 48.6641 39.2105 49.1661 38.7395 49.2801C38.0695 49.4431 36.1155 50.0281 35.2675 50.1021C35.2675 44.6721 35.2775 38.6051 35.5715 33.1621C36.2765 33.2661 37.0985 33.4071 37.7925 33.2181C38.0675 33.1431 38.2935 32.6481 38.3465 32.0051L38.3865 31.5151C37.7565 31.0601 36.5065 31.1531 36.5045 29.0031C36.5015 26.8531 38.7055 27.0501 38.7055 27.0501C39.9245 25.9791 37.2985 25.0681 36.5075 25.0681C34.8165 25.0681 33.1555 26.6871 32.6515 28.1501C32.1575 29.5821 32.0105 31.7411 33.1455 32.8911C33.2415 32.9891 33.2515 33.3211 33.1995 34.8641C33.1995 36.4391 33.2615 38.2241 33.0085 38.9941C32.7555 39.7641 32.2845 39.9921 31.7875 39.7511C29.2975 38.5411 26.4645 38.2621 23.7375 38.2341C22.4975 38.2211 21.4445 38.1891 21.3995 38.1611C20.9175 37.8741 21.7105 37.6101 21.8745 37.5921C22.6195 37.5121 25.3395 37.5061 27.9375 37.5811C31.1675 37.6741 28.9345 36.6261 26.8595 36.3151C25.4045 36.0971 23.1725 36.0511 21.9755 36.2481C21.5085 36.3251 21.1175 36.3541 21.0775 36.3151C21.0045 36.2451 21.3155 33.7491 21.3155 33.7491C21.3155 33.7491 23.5205 33.9991 24.5255 31.5601C25.4975 29.5641 24.3755 27.2131 22.2605 26.5821C21.7705 26.4351 21.7295 26.4051 21.7295 26.1961C21.7295 25.9081 21.8445 25.8211 22.3075 25.7651C23.2625 25.6471 24.5435 24.2441 24.8765 23.3831C25.3745 22.0951 24.7645 20.4631 23.2915 20.2621C23.0115 20.2231 22.7425 20.1551 22.6955 20.1091C22.3565 19.7811 22.9455 18.0331 23.0185 17.5691C23.0835 17.1581 23.7215 17.2051 24.0475 17.1491C27.2265 16.6081 30.2695 17.4391 33.3555 17.9771C34.6385 18.2011 36.3275 18.6631 37.4995 19.2191C37.8905 19.4051 40.1515 19.9491 39.6995 18.7991C39.1705 17.4531 34.1325 16.4551 32.9045 16.1771C30.0845 15.5401 27.1145 14.8861 24.2475 15.3141C23.8035 15.4221 23.2915 15.5111 23.2915 15.5111C23.2915 15.5111 23.6675 15.0551 24.2475 14.4761C25.0245 13.7001 25.0555 13.6931 27.6475 13.6831C30.6845 13.6721 33.5405 14.3531 36.3525 15.5111C36.8225 15.7051 37.2905 15.8811 37.7545 16.0991C38.3165 16.3631 38.8295 16.5791 38.8945 16.5791C39.0795 16.5791 39.2195 16.3591 39.1645 16.1491C39.1205 15.9791 38.3265 15.0871 37.7925 14.6741C35.9905 13.2811 33.6485 12.4891 31.1605 12.1611C25.5175 11.4191 27.6485 3.52808 27.6485 3.52808C24.0195 5.52608 24.2965 12.2381 22.7095 13.3621ZM22.7095 41.0831C22.5655 41.0831 22.5475 41.1181 22.5935 41.3031C23.1295 43.4821 25.8755 44.7841 27.8775 45.3201C29.0865 45.6441 32.6095 46.1841 33.6195 45.2171C34.0885 44.7701 33.8035 42.5651 33.8275 41.8781C30.7375 42.7121 25.7425 42.2411 22.7085 41.0841L22.7095 41.0831Z"
                    fill="black" />
                <path fill-rule="evenodd" clip-rule="evenodd"
                    d="M25.8437 3.24995C23.9337 5.21395 22.2587 9.42295 22.2587 12.274C22.2587 12.707 22.2327 12.744 21.1947 13.838C19.5637 15.418 19.9787 17.049 19.9787 17.049C19.9787 17.049 20.0247 17.317 19.8367 18.304C19.7317 18.852 19.6517 19.777 19.5637 20.153C19.4173 20.7792 19.2773 21.4069 19.1437 22.036C18.8787 23.294 18.6227 23.521 18.3347 23.824C17.1777 25.041 16.8787 25.964 16.8797 27.13C16.8807 27.675 17.3517 28.46 17.6037 28.808C17.7507 29.012 17.7817 29.182 17.8017 29.917C17.8157 30.394 17.8877 31.047 17.9637 31.367C18.0897 31.901 18.0907 32.025 17.9777 32.877C17.8327 33.968 17.8197 35.597 17.9427 37.237C18.0687 38.915 18.0977 38.964 19.5557 39.997L20.2377 40.48L20.1847 41.575C20.1547 42.177 20.0727 43.158 20.0027 43.755C19.8767 44.819 19.8807 45.535 20.0257 47.911L20.0757 48.734H19.8277C19.3557 48.734 18.2837 49.206 17.8497 49.606C17.4837 49.943 17.4277 50.041 17.2797 50.622C17.0157 51.652 16.8647 52.425 16.8917 52.614C16.9137 52.772 16.8707 52.794 16.4657 52.838C15.7187 52.917 15.5557 53.055 15.1487 53.955C14.9987 54.285 14.7217 54.815 14.5327 55.129C14.0617 55.914 13.9467 56.354 14.1207 56.713C14.3577 57.202 14.9027 57.353 18.0577 57.811C18.6857 57.903 19.5117 58.045 19.8927 58.128C20.2747 58.211 20.9897 58.352 21.4827 58.443C24.1327 58.93 24.2417 58.945 26.8257 59.181C28.6837 59.35 32.7037 59.155 34.1787 58.825C34.4627 58.761 34.8977 58.686 35.1437 58.658C35.3907 58.629 35.8307 58.555 36.1227 58.494L37.6727 58.168C38.2327 58.051 38.9297 57.886 39.2217 57.801C40.1787 57.524 42.1917 57.021 42.5657 56.967C43.1957 56.874 44.3057 56.555 44.7307 56.342C45.2777 56.069 45.3747 55.872 45.3137 55.156C45.2437 54.324 45.0517 54.01 44.0747 53.118C43.1377 52.262 42.9497 51.964 42.4977 50.622C42.1427 49.569 41.8177 48.931 41.5067 48.672C41.2737 48.479 40.4857 48.112 40.0167 47.979C39.3237 47.782 39.3367 47.816 39.0227 45.522C38.9587 45.058 38.8847 43.865 38.8567 42.872C38.8297 41.877 38.7687 40.721 38.7227 40.302C38.6757 39.882 38.6277 38.046 38.6157 36.221L38.5927 32.904C40.8617 32.856 41.6497 30.906 41.8627 28.842C42.0667 26.864 40.2227 25.536 38.5687 24.859C38.5687 24.108 39.3447 21.225 39.6777 20.015C40.8307 19.802 40.3987 17.123 40.0857 16.335C39.8284 15.6624 39.4418 15.0467 38.9477 14.523C39.6967 9.91895 40.1607 4.18095 35.3547 1.74395C32.6147 0.353953 28.2487 0.774954 25.8437 3.24995ZM32.8527 3.75095C35.9687 4.94595 36.7077 5.55095 37.1527 9.02095C37.3957 10.914 36.9927 12.651 36.8567 14.523C36.8137 15.123 37.3947 15.497 37.5927 15.624C38.0687 15.932 38.6007 17.039 38.5697 18.444C37.8497 18.724 37.5047 19.22 37.3947 20.015C37.1927 21.481 36.0567 24.451 36.5577 25.956C36.8157 26.272 37.6157 26.634 38.3587 26.949C40.2357 27.357 40.5397 29.607 39.3447 30.849C38.9497 31.26 37.7277 31.413 37.2547 31.553C37.0497 31.613 36.8067 31.733 36.7147 31.818C36.5497 31.97 36.5467 32.038 36.5577 35.773C36.5627 37.926 36.5047 40.146 36.5577 40.647C36.6077 41.133 36.6847 42.47 36.7297 43.619C36.7887 45.142 36.8637 46.022 37.0077 46.871C37.2177 48.115 37.2667 48.248 37.7087 48.788C38.0187 49.168 39.0357 49.212 39.6797 49.401C40.2897 49.5779 40.5897 49.752 40.7197 50.001C40.7817 50.121 40.9697 50.636 41.1357 51.144C41.3017 51.652 41.4647 52.104 41.4967 52.148C41.5297 52.192 41.6597 52.474 41.7867 52.775C41.9507 53.164 42.0957 53.374 42.2897 53.504C42.8397 53.872 43.7887 54.836 43.7887 55.026C43.7887 55.195 43.7157 55.226 42.9527 55.396C41.6847 55.677 40.2427 56.024 39.4257 56.245C37.9087 56.655 35.6337 57.144 34.5727 57.287C34.2587 57.334 33.9459 57.3887 33.6347 57.451C31.4877 57.878 26.7217 57.878 24.1747 57.449C22.6037 57.186 21.1277 56.914 20.4647 56.767C19.6847 56.595 18.0637 56.325 17.3247 56.245C16.9773 56.2027 16.6319 56.1449 16.2897 56.072L15.7447 55.952L16.0197 55.492C16.1697 55.2379 16.3177 54.935 16.3477 54.817C16.4457 54.434 16.7147 54.241 17.3787 54.079C17.9157 53.947 18.0527 53.9389 18.3447 54.026C19.0097 54.222 22.0207 54.7519 22.4867 54.756C22.9387 54.7579 23.5307 54.611 23.6547 54.466C23.8047 54.287 23.6197 53.986 23.2437 53.797C22.9337 53.642 21.9907 53.38 20.7697 53.112C19.3197 52.793 19.0917 52.738 18.7277 52.62C18.4367 52.526 18.3467 52.4599 18.3727 52.36C18.3927 52.288 18.4927 51.873 18.5967 51.439C18.8037 50.569 18.9107 50.439 19.2967 50.591C19.8987 50.828 23.0177 51.383 23.7507 51.384C24.3357 51.384 24.7277 51.249 24.8197 51.014C24.8817 50.854 24.9077 50.882 24.4927 50.676C24.1397 50.501 23.6867 50.378 22.2177 50.058C20.8097 49.752 20.9457 49.812 21.0797 49.558C21.1447 49.436 21.1967 49.306 21.1977 49.268C21.1977 49.232 21.2717 49.109 21.3607 48.997C21.5557 48.753 21.5687 48.341 21.4307 46.717C21.3587 45.872 21.3597 45.337 21.4357 44.424C21.7697 40.399 21.7747 40.199 21.5397 39.768C21.4397 39.584 20.9047 39.096 20.8027 39.096C20.7027 39.096 19.8117 38.257 19.8117 38.164C19.8117 38.118 20.1877 37.924 20.6477 37.733C21.1077 37.542 21.6277 37.275 21.8027 37.14L22.1217 36.894L21.8837 36.794C21.5557 36.656 20.9117 36.664 20.3797 36.811C20.1922 36.8648 20.0027 36.9115 19.8117 36.951C19.6317 36.976 19.5467 34.465 19.7017 33.691C19.7617 33.389 19.8117 33.01 19.8127 32.847C19.8147 32.515 19.8707 32.401 20.0727 32.328C20.1477 32.301 20.2707 32.188 20.3447 32.076C20.4747 31.881 20.4677 31.85 20.1717 31.248C19.7647 30.422 19.7097 29.742 19.9787 28.882C20.0807 28.559 20.2527 28.161 20.3627 27.997C20.5227 27.757 20.5507 27.641 20.5077 27.389C20.4557 27.083 20.4607 27.075 20.7857 26.949C21.0747 26.838 21.1157 26.789 21.1157 26.569C21.1157 26.359 21.0707 26.299 20.8337 26.202C20.3607 26.007 20.1507 26.052 19.7707 26.427C19.5067 26.687 19.4107 26.854 19.3657 27.13C19.2937 27.572 18.9897 28.246 18.8597 28.25C18.8077 28.253 18.7407 28.137 18.7117 27.993C18.6771 27.8288 18.6306 27.6674 18.5727 27.51C18.4437 27.181 18.6897 26.414 19.1437 25.729C19.3507 25.417 19.5397 25.144 19.5637 25.122C19.5877 25.1 19.8187 24.858 20.0767 24.586C20.4447 24.196 20.5467 24.033 20.5517 23.823C20.5577 23.538 20.8557 22.813 20.8657 23.056C20.8757 23.308 21.2627 23.969 21.5257 24.188C21.8457 24.452 22.1257 24.456 22.3837 24.202C22.6357 23.954 22.6357 23.809 22.3807 23.338C22.1307 22.877 22.1257 22.619 22.3507 21.97C22.5127 21.505 23.0137 20.705 23.1437 20.705C23.2347 20.705 23.7257 20.239 23.7257 20.153C23.7257 19.99 23.4617 19.821 23.2107 19.823C21.8387 19.823 21.1557 21.347 21.1557 21.347C21.3517 20.151 21.8387 18.304 21.9277 17.178C21.9557 17.133 22.3277 17.041 22.7527 16.974C23.8507 16.8 24.7627 16.551 25.0387 16.35C25.1687 16.254 25.2757 16.151 25.2757 16.12C25.2757 16.089 25.1497 15.954 24.9957 15.82C24.4757 15.371 23.6817 15.318 22.0657 15.624C21.8527 15.664 21.8397 15.654 21.9187 15.509C22.0877 15.198 22.8787 14.479 23.1987 14.346C23.3767 14.272 24.0457 14.046 24.6857 13.844C26.3237 13.327 26.4827 12.529 24.6857 12.529C24.6827 11.354 25.0107 10.373 25.3427 9.27095C26.3807 5.82995 27.8457 2.74795 32.8527 3.75095Z"
                    fill="#323239" />
            </g>
        </g>
    </g>
    <defs>
        <clipPath id="clip0_5_1407">
            <rect width="60" height="60" fill="white" transform="translate(0.329956 0.100098)" />
        </clipPath>
        <clipPath id="clip1_5_1407">
            <rect width="60" height="60" fill="white" transform="translate(0.329956 0.100098)" />
        </clipPath>
        <clipPath id="clip2_5_1407">
            <rect width="60" height="60" fill="white" transform="translate(0.329956 0.100098)" />
        </clipPath>
    </defs>
</svg>
