<svg xmlns="http://www.w3.org/2000/svg" class="absolute mt-2" width="65" height="55" viewBox="0 0 81 71" fill="none">
    <g clip-path="url(#clip0_5_1422)">
        <g clip-path="url(#clip1_5_1422)">
            <g clip-path="url(#clip2_5_1422)">
                <path d="M8.13306 0.522827L70.0091 7.49833L63.0336 69.3744L1.15755 62.3989L8.13306 0.522827Z"
                    fill="black" />
                <path d="M8.13306 0.522827L70.0091 7.49833L63.0336 69.3744L1.15755 62.3989L8.13306 0.522827Z"
                    fill="black" />
                <path fill-rule="evenodd" clip-rule="evenodd"
                    d="M39.3595 6.76409C38.5465 6.67209 37.5275 6.59809 36.7605 6.95009C36.6349 7.00779 36.4991 7.04006 36.361 7.04502C36.2229 7.04999 36.0852 7.02756 35.9558 6.97904C35.8264 6.93051 35.7078 6.85684 35.607 6.76228C35.5062 6.66772 35.4252 6.55414 35.3685 6.42809C35.2529 6.17293 35.2427 5.88242 35.3403 5.61982C35.4379 5.35723 35.6353 5.14383 35.8895 5.02609C37.0145 4.50909 38.3915 4.52609 39.5955 4.66209C40.6745 4.78309 41.7105 4.81509 42.8805 4.90209C47.1245 5.22009 51.2075 6.80709 53.8485 10.3141C55.3725 12.3371 57.0725 14.9061 57.4785 17.4231C57.8685 19.8381 57.9205 22.0581 57.9445 24.4791C57.9505 25.0231 57.9575 25.6181 57.9115 26.2351C59.6625 27.6051 58.8845 31.1961 58.6655 33.1341C58.5675 34.0001 58.4255 34.8611 58.2945 35.7231C59.2845 37.1771 59.8795 38.8261 60.4525 40.4791C61.0265 42.1361 61.7565 44.2421 61.7605 46.2111C61.7655 48.6341 61.7545 51.2551 60.8205 53.5331C60.4705 54.3871 59.9245 55.3501 59.1125 55.9071C58.7805 56.1341 58.1655 56.4281 57.7225 56.6321C57.4145 56.7741 57.2205 56.8241 57.0625 57.1201C56.8565 57.5021 56.5475 58.0301 56.1245 58.6371C54.0985 61.5471 51.0765 63.8511 47.7915 65.1401C46.8605 65.5051 45.7615 65.7041 44.2015 65.8821C43.9274 65.904 43.6556 65.8184 43.4436 65.6434C43.2316 65.4684 43.096 65.2178 43.0656 64.9445C43.0351 64.6713 43.1123 64.3969 43.2806 64.1796C43.449 63.9622 43.6953 63.819 43.9675 63.7801C45.4985 63.6061 46.3675 63.4301 47.0315 63.1701C49.9085 62.0401 52.6265 59.9761 54.4045 57.4251C54.7745 56.8941 55.0415 56.4351 55.2145 56.1151C55.2975 55.9591 55.3795 55.8011 55.4525 55.6391C55.6835 55.0971 56.3625 54.9331 56.8505 54.7091C57.3385 54.4841 57.7755 54.2661 57.9305 54.1591C58.2255 53.9571 58.5745 53.4671 58.8775 52.7281C59.7025 50.7181 59.6635 48.3511 59.6595 46.2181C59.6555 44.4861 58.9355 42.5481 58.2945 40.6751C57.7745 39.1551 57.2205 37.7951 56.3485 36.6231C56.0825 36.2651 56.1445 35.8731 56.2085 35.4651C56.3375 34.6191 56.4785 33.7751 56.5745 32.9251C56.7585 31.2911 57.0325 29.5091 56.6035 27.8931C56.1475 27.5631 55.6495 27.3371 55.7535 26.6441C55.8555 25.9621 55.8505 25.2701 55.8435 24.4761C55.8185 22.1621 55.7765 20.0731 55.4035 17.7661C55.0555 15.6081 53.4835 13.3311 52.1735 11.5931C49.8985 8.57309 46.3635 7.2841 42.7215 7.01209C41.6745 6.93409 40.4805 6.89009 39.3595 6.76409Z"
                    fill="#0CE51C" />
                <path fill-rule="evenodd" clip-rule="evenodd"
                    d="M51.3573 14.5922C50.7513 13.4712 48.6963 10.9132 45.3233 9.65415C41.1063 8.08015 36.6303 7.57515 34.8083 7.92015C32.9843 8.26415 27.4343 11.2102 24.2763 16.0732C21.7503 19.9642 20.6253 22.0712 20.3783 22.6392L19.2483 22.9232C18.3513 23.9672 16.3963 26.7782 15.7403 29.6712C15.0843 32.5632 14.8763 36.1212 14.8533 37.5372C13.2203 38.2232 9.7803 40.1522 9.0893 42.3822C8.9323 42.8892 8.7593 43.4212 8.5813 43.9662C7.7813 46.4222 6.8913 49.1512 7.0113 51.0762C7.1573 53.4272 11.4423 59.2662 14.3033 60.6882C17.1633 62.1102 21.2913 63.2622 23.6423 63.1152C25.5223 62.9972 27.2103 61.9152 27.8193 61.3882C28.7663 62.3182 31.2563 64.2752 33.6293 64.6532C36.5983 65.1252 39.9873 65.5072 41.7223 64.7412C43.1093 64.1282 45.0543 63.6062 45.8523 63.4212C47.4463 62.6852 50.9083 60.7212 52.0083 58.7582C53.1083 56.7942 53.7573 55.4302 53.9433 54.9932C54.6563 55.1652 56.2913 55.1202 57.1253 53.5662C58.1683 51.6232 58.6293 46.3182 57.7583 44.2972C57.0613 42.6802 54.7643 38.3742 53.7023 36.4232C54.1123 35.2332 54.8783 32.5722 54.6753 31.4502C54.4723 30.3282 54.0913 28.9122 53.9273 28.3442C54.0103 26.7972 54.0533 23.0842 53.5633 20.6112C53.0733 18.1382 51.8883 15.5692 51.3573 14.5932V14.5922ZM27.0433 37.8122L23.0533 36.6752C23.6833 34.7312 25.1113 30.5892 25.7763 29.5652C26.3668 28.6625 26.9712 27.7691 27.5893 26.8852L27.7263 25.6642C28.5683 23.8822 31.0543 20.0232 34.2623 18.8462C37.4713 17.6702 40.6143 16.9062 41.7853 16.6732C42.2373 16.7232 43.2363 17.4402 43.6183 19.9012C44.0003 22.3612 44.3133 25.1072 44.4223 26.1732C44.1043 26.9612 43.3533 28.8272 42.8933 29.9832C42.4333 31.1412 41.7543 32.3732 41.4733 32.8452C40.1323 32.5572 36.8233 32.1842 34.3153 33.0002C31.8053 33.8162 28.4223 36.5482 27.0433 37.8122Z"
                    fill="white" />
                <path fill-rule="evenodd" clip-rule="evenodd"
                    d="M33.8629 7.53302C29.1279 8.63502 23.9629 15.266 20.7949 21.359C20.7689 21.591 21.5819 24.039 21.8389 24.309C22.2059 24.696 22.3619 24.734 22.8519 24.561C23.1009 24.473 23.6819 24.021 24.3599 22.947C25.6989 20.827 27.4999 19.407 30.0519 17.225C34.1119 13.755 39.2599 11.51 42.6539 17.373C43.6149 19.033 44.1549 21.333 44.4289 24.023C44.7639 27.318 42.6959 28.196 42.2709 31.966C42.2709 31.966 40.9019 31.893 40.1789 31.745C37.8279 31.265 34.3869 31.968 32.1419 33.387C29.8219 34.853 27.5419 37.194 26.0139 39.677L25.2839 40.864C24.5989 40.63 24.2939 40.319 23.1189 40.186C22.0989 40.071 20.8789 39.752 19.1899 40.818C18.2049 41.439 17.2479 42.832 16.8939 44.392C16.7249 45.142 17.3449 45.219 17.8519 44.5C18.3339 43.818 19.2709 43.763 20.1529 43.471C21.0559 43.173 23.8909 43.893 23.8909 43.893C23.8909 43.893 22.9269 47.315 22.7189 49.061C22.5319 50.621 22.5379 50.773 22.8149 51.793C23.3979 53.933 24.0849 56.01 24.4249 56.665C24.8229 57.428 24.7999 57.462 23.7059 57.685C22.5309 57.924 20.7269 57.523 18.2769 56.48C17.2589 56.046 16.8709 55.777 15.4869 54.547C14.4569 53.631 13.5489 52.675 12.9589 51.883C12.1649 50.817 11.9619 50.418 11.4859 48.98C10.8819 47.158 10.6479 45.675 10.7059 44.02C10.7359 43.097 10.8099 42.777 11.2329 41.721C12.2239 39.251 11.3329 38.868 8.86793 42.835C7.84793 44.477 7.52893 49.321 7.59993 51.279C7.73693 55.026 12.1999 59.498 15.9429 61.439C20.8829 64.002 25.5039 63.164 27.8979 61.157C29.9359 63.027 31.8839 63.637 33.6699 64.355C35.0509 64.911 37.3979 65.261 38.8799 65.133C39.9159 65.043 42.2639 62.969 40.7099 62.601C38.5099 62.081 36.6829 61.292 34.8549 58.223C33.9519 56.706 33.6599 55.99 33.2029 54.165C32.9089 52.997 32.5069 51.422 32.5989 50.601L32.8819 48.088C32.7619 48.023 30.3289 47.921 29.8879 47.922C27.8279 47.924 29.9779 43.854 30.4739 42.726C31.1139 41.267 33.4189 39.795 35.2619 38.176C37.9559 35.807 43.1629 35.248 45.3869 32.316C49.6289 25.484 46.6969 13.5 40.6189 9.19402C39.5129 8.41102 34.6989 7.33802 33.8629 7.53302ZM19.0039 23.07C18.4679 23.666 18.1139 24.267 18.0709 24.65C18.0509 24.835 17.8489 25.365 17.6249 25.828C16.7319 27.671 15.3269 32.75 15.0629 35.085C14.9679 35.93 14.9879 36.168 15.1749 36.418C15.5789 36.961 16.4449 36.794 16.7789 36.11C16.8609 35.942 17.2829 34.524 17.7159 32.96C18.5119 30.082 19.8159 26.938 21.0329 24.48C21.4929 23.552 20.3109 21.613 19.0039 23.07Z"
                    fill="black" />
                <path
                    d="M41.5234 50.0741C41.8774 48.3601 42.9134 46.9781 44.2784 46.4001C44.9784 46.1041 45.2154 46.0681 45.7954 46.1751C47.1334 46.4231 48.3474 47.8741 48.3954 49.2851C48.4274 50.2441 48.0974 51.7551 47.6734 52.5871C46.9164 54.0761 45.7484 54.7211 44.1374 54.5421C43.4144 54.4621 43.2544 54.3881 42.6674 53.8601C41.4994 52.8091 41.1774 51.7441 41.5234 50.0741Z"
                    fill="#323239" />
                <path fill-rule="evenodd" clip-rule="evenodd"
                    d="M36.9519 5.6141C35.2419 5.5421 32.9079 6.6811 31.4849 7.3761L31.4549 7.3901C26.2909 9.9121 22.1509 15.3341 20.2119 20.6121C20.2119 20.6121 18.9289 20.2861 18.0799 21.6321C16.2219 24.5771 14.5759 28.8211 13.7599 33.8001L13.4529 36.5231C10.9029 38.0801 9.3599 39.7201 8.0779 42.4911C5.4549 48.1631 5.0429 55.2381 10.0929 59.1981C14.0219 62.2781 20.4429 66.3851 27.2529 63.5171L27.7999 63.0971L28.7599 63.7351C29.9639 64.5351 31.7419 65.4201 32.9259 65.8081C34.4979 66.3241 37.1639 66.4021 38.9339 66.3361C40.5239 66.2761 42.2149 65.4641 42.9599 64.9931C46.7559 64.8221 50.7399 63.4131 53.6229 58.7171C54.1649 57.8351 54.7289 56.7361 54.7289 56.7361C55.4979 56.8221 57.4849 55.2941 57.8989 54.7191C58.7709 53.5091 59.1709 51.9561 59.5249 48.8861C60.0299 44.4021 58.1959 39.7801 55.7919 36.1791C56.1699 35.2831 56.2419 34.5541 56.3219 33.7571C56.3689 33.2931 56.4179 32.8071 56.5299 32.2511C57.2019 28.9231 55.7269 19.9791 54.6619 16.8701C52.9679 11.9251 49.5419 8.7161 45.6019 7.1881C43.7889 6.4851 39.3979 5.7181 36.9519 5.6141ZM46.9169 10.7631C51.5639 13.5851 52.4859 18.1291 52.9609 23.3961L48.0479 21.5621C48.0309 20.0661 47.8919 18.8831 47.7679 18.1951C47.0449 15.5141 43.7839 10.7111 43.0439 11.5761C42.7199 11.9561 42.9369 12.1741 43.3609 12.6001C44.0279 13.2681 45.9109 16.8041 46.3029 19.9321C46.3029 19.9321 46.4259 20.6701 46.4879 21.7481L44.7279 22.5511C44.4059 17.2381 41.0529 12.6711 35.7129 12.9891C34.0109 13.2291 32.8459 13.5791 31.5299 14.6671C30.1729 15.7871 29.8099 16.2441 29.9819 16.6131C30.2469 17.1781 30.6319 17.0501 32.0699 15.9181C33.5959 14.7181 34.5479 14.4611 36.0129 14.3201C37.3929 14.1861 40.2339 15.2801 40.3339 15.7791C40.3569 15.8931 40.2289 15.9391 39.9659 15.9091C38.6599 15.7621 35.5909 16.7611 33.7779 17.9251C31.7979 19.1951 28.8579 22.1521 27.8049 23.9341L27.2849 24.8131L25.0329 24.4681C23.7949 24.2791 22.7329 24.0631 22.7329 24.0631L21.7469 22.0461C21.7469 22.0461 23.8409 17.6841 25.2209 15.9201C27.7809 12.6471 31.4949 9.67909 34.2569 8.69809C36.5129 7.89609 39.1329 8.4261 41.4389 8.8921C43.3369 9.2761 45.2449 9.7481 46.9169 10.7621V10.7631ZM44.7399 24.3281C44.6119 27.1021 43.8169 30.1001 42.3219 32.9281C42.1299 33.0811 41.5669 33.4121 41.0719 33.6631C39.9979 34.2071 37.7219 35.8591 35.7559 37.5231C34.5879 38.5111 34.1199 39.0281 33.1049 40.4531C31.5719 42.6051 31.0369 43.5211 30.3989 45.0841C29.7879 46.5841 29.8009 46.8831 30.4949 47.1601C31.3429 47.5001 31.7699 47.1901 32.3909 45.7921C33.4159 43.4821 35.3219 41.0021 37.1579 39.5951C38.1479 38.8351 40.1899 37.8051 41.5119 37.3951C42.3639 37.1321 44.0119 36.9931 44.9719 37.1051C47.0189 37.3421 49.2859 38.2911 50.7629 39.5281C53.5929 41.8971 55.2709 45.5181 55.2549 49.2311C55.2469 50.9361 55.1989 51.8351 54.9179 53.1291C54.8339 53.3691 54.9019 53.5011 55.1729 53.5311C56.7449 53.7091 56.7949 48.2561 56.7619 47.5321C56.6349 44.7411 55.3739 41.0201 53.0659 37.7951C52.1779 36.5531 52.2929 36.2311 52.5359 35.7211C53.0789 33.8091 53.3219 29.8881 53.1259 25.7841L47.9959 23.5501C47.8987 25.147 47.6537 26.7315 47.2639 28.2831C46.7389 30.6201 46.2839 31.3431 44.5119 32.0951C44.5119 32.0951 45.7879 28.3711 46.2939 25.6381C46.4249 24.9281 46.4889 24.2041 46.5119 23.5191L44.7399 24.3281ZM41.7619 18.4811C44.0859 22.7631 43.4849 26.2951 41.4649 30.1741C38.6199 29.8541 35.9469 30.1281 33.3659 31.4891C31.2179 32.6211 29.3419 34.2091 27.6399 35.9231C26.6769 35.6991 26.6099 35.6771 25.6719 35.3601C26.3419 32.5731 27.5419 30.7221 29.0089 28.4621L29.0109 28.4581C29.2009 28.1661 29.3939 27.8681 29.5909 27.5591C29.7729 27.2751 29.6969 26.6421 29.6399 26.1651C29.6139 25.9481 29.5909 25.7631 29.5989 25.6581C29.7189 24.0091 33.2139 20.5451 35.9149 19.1581C37.8589 18.1601 39.9319 17.7261 41.0129 17.8221C41.3489 17.8521 41.4849 17.9721 41.7619 18.4811ZM20.4239 24.5111C20.7539 25.4991 21.3069 25.9541 23.1469 26.1611C24.8639 26.3551 26.4689 26.3121 26.6569 26.7811C25.3279 28.6451 23.7769 31.9001 23.1709 34.2911L23.0909 34.6181C23.0139 34.9501 22.9669 35.1541 22.8409 35.2801C22.6449 35.4801 22.2569 35.4901 21.2569 35.5161C21.0699 35.5211 20.8619 35.5261 20.6299 35.5341C19.0089 35.5841 17.6259 35.8001 16.7489 36.1361C16.4609 36.2461 16.1689 36.3311 16.0999 36.3231C15.9649 36.3081 16.1399 35.1121 16.6649 32.4871C17.0179 30.7121 17.4109 29.3501 17.9939 27.8721C18.5469 26.4691 19.8549 23.3571 19.9389 23.2441C20.1169 23.2641 20.2559 24.0131 20.4229 24.5121L20.4239 24.5111ZM39.5199 32.8131C39.3969 32.8911 38.7449 33.2921 38.0719 33.7031C37.3979 34.1131 36.0419 35.1051 35.0569 35.9071C32.3379 38.1201 30.8759 40.0241 29.5579 43.0671C28.4849 45.5441 28.2219 47.0531 28.7359 47.7831C29.1619 48.3881 30.9989 48.9431 31.6699 48.6691C31.9099 48.5711 31.9309 48.6401 31.9149 49.4871C31.8589 52.3821 32.0949 53.9711 32.9269 56.2861C33.7459 58.5631 34.2669 59.4391 35.4389 60.5131C37.1109 62.0431 38.6009 63.2321 39.9979 63.6101C39.1279 64.1261 37.2359 64.0471 36.2959 63.6421C32.0239 61.8051 29.0089 55.8841 28.3219 51.4531C28.2089 50.7231 28.0889 49.9661 28.0549 49.7731C28.0169 49.5611 27.8949 49.4111 27.7439 49.3941C27.0379 49.3141 26.9839 52.5121 27.6499 54.9471C28.2249 57.0531 29.2089 59.8001 30.7859 61.5311C31.2859 62.0791 31.6749 62.5451 31.6509 62.5661C31.5629 62.6461 29.8069 61.4031 29.1359 60.8781C26.7609 59.0201 25.3459 56.4861 24.4719 52.5281L24.1769 51.1921L24.5349 48.0701C24.8809 45.0561 24.9109 44.9061 25.3979 43.7661C26.8749 40.3131 28.9579 37.6771 31.8899 35.5561C33.6099 34.3091 35.0379 33.5461 36.3379 33.1781C37.3659 32.8861 39.0449 32.6001 39.4759 32.6441C39.7089 32.6681 39.7149 32.6881 39.5199 32.8131ZM49.0849 40.6691C53.5209 43.5231 54.5179 49.1291 53.0529 53.8691C52.4499 55.8241 51.7129 57.2121 50.5279 58.6311C46.4079 63.5631 40.2539 63.8511 36.2639 58.7441C34.2439 56.1561 33.2289 53.6101 33.7269 49.1941C34.3979 41.7461 43.1219 36.1241 49.0849 40.6691ZM26.1529 38.0921C26.2049 38.1341 25.9259 38.6711 25.5329 39.2841L24.8199 40.4001L24.1499 40.2781C23.5719 40.1721 23.4289 40.1981 23.0929 40.4711C22.5759 40.8921 22.6249 41.1911 23.2849 41.6311C23.5859 41.8311 23.8559 42.0261 23.8849 42.0631C23.9139 42.0991 23.8459 42.3641 23.7349 42.6511L23.5329 43.1711L22.8559 42.9001C21.7759 42.4671 20.6399 42.4971 19.3409 42.9941C18.7409 43.2241 18.2529 43.3801 18.2569 43.3411C18.2609 43.3011 18.5299 42.8811 18.8539 42.4071C19.4619 41.5171 19.5289 41.1101 19.0759 41.0591C18.0489 40.9431 16.6599 43.1631 16.4179 45.3051C16.0029 48.9891 18.8279 53.2421 22.2119 54.0281L23.1019 54.2341L23.4239 55.3131C23.8559 56.7581 24.7509 58.4491 25.8569 59.9051C26.3569 60.5651 26.7659 61.1181 26.7639 61.1351C26.7619 61.1531 26.4889 61.2891 26.1569 61.4371C24.6669 62.1011 22.8829 62.1921 20.5769 61.7211C15.4019 60.6641 10.1199 56.9121 8.7669 51.4331C8.4209 50.0371 9.1029 46.3951 10.2269 43.6371C10.8289 42.1571 11.4229 41.3911 13.0639 39.9791C14.5769 38.6781 15.2139 38.3751 17.5079 37.8691C18.6189 37.6251 19.6299 37.5171 21.5509 37.4361C22.0359 37.4161 26.0169 37.9831 26.1529 38.0921ZM22.5559 44.0801L23.1259 44.2971L22.9599 44.9161C22.8679 45.2561 22.6799 46.5441 22.5399 47.7761C22.3209 49.7211 22.3129 50.1491 22.4779 51.0221C22.5819 51.5751 22.6629 52.0721 22.6569 52.1261C22.6329 52.3351 21.5299 51.9281 20.7619 51.4271C18.8509 50.1811 17.3169 47.4561 17.7399 46.0591C18.0039 45.1861 19.5469 44.1351 20.8699 43.9271C21.6799 43.7991 21.8629 43.8161 22.5559 44.0801Z"
                    fill="#323239" />
            </g>
        </g>
    </g>
    <defs>
        <clipPath id="clip0_5_1422">
            <rect width="70" height="70" fill="white" transform="translate(0.309937 0.100098)" />
        </clipPath>
        <clipPath id="clip1_5_1422">
            <rect width="70" height="70" fill="white" transform="translate(0.309937 0.100098)" />
        </clipPath>
        <clipPath id="clip2_5_1422">
            <rect width="70" height="70" fill="white" transform="translate(0.309937 0.100098)" />
        </clipPath>
    </defs>
</svg>
