<svg xmlns="http://www.w3.org/2000/svg" width="65" height="55" viewBox="0 0 76 66" fill="none">
<g clip-path="url(#clip0_5_1460)">
<g clip-path="url(#clip1_5_1460)">
<g clip-path="url(#clip2_5_1460)">
<path d="M28.0311 1.83781C27.6889 1.6621 27.2691 1.79701 27.0934 2.13915C26.9177 2.48129 27.0526 2.9011 27.3947 3.07682C29.3682 4.09037 31.281 5.83443 32.5701 7.64079C33.0567 8.32273 34.6112 11.5771 35.326 11.4184C35.8653 11.2987 36.4193 11.2628 36.9551 11.1241C41.9147 9.83962 47.152 10.953 51.7973 13.2731C54.8455 14.7957 55.786 15.0566 58.0891 17.3573C60.1376 19.4037 59.9509 22.1467 58.6068 24.7775C57.2579 27.4176 54.8471 29.6947 52.9304 30.5456C51.9672 30.9733 51.0118 31.4183 50.055 31.8598C50.9899 32.9494 52.0643 33.9415 52.946 35.0739C54.1172 36.5782 54.3543 38.4963 54.7608 40.303C57.6274 40.9891 60.4532 42.0294 62.1597 44.6366C62.6675 45.4124 63.0023 46.4448 63.2304 47.5741C63.8185 50.4855 63.7676 53.2498 62.9282 56.1149C62.223 58.5223 60.659 61.179 60.659 63.743C60.659 64.1277 60.9708 64.4395 61.3554 64.4395C61.74 64.4395 62.0518 64.1277 62.0518 63.743C62.0518 61.3393 63.6032 58.7653 64.2649 56.5065C65.167 53.4271 65.2278 50.4277 64.5957 47.2983C64.3532 46.0981 63.9743 44.8656 63.3251 43.8738C61.6405 41.3 58.8481 39.8566 55.9324 39.1515C55.5844 37.5139 55.298 35.8274 54.045 34.2182C53.5271 33.553 52.9166 32.9566 52.3413 32.3409C52.7311 32.1627 53.1734 31.9617 53.4956 31.8187C55.7469 30.8192 58.376 28.2907 59.8471 25.4112C61.3231 22.5225 61.7365 19.0321 59.0735 16.3719C56.5826 13.8836 55.4273 13.5293 52.4197 12.0271C47.5807 9.61016 41.9908 8.38108 36.6059 9.77571C36.3292 9.84736 35.7633 9.92969 35.7633 9.92969C35.3244 9.06393 34.6926 8.35304 34.1731 7.54014C34.0201 7.30178 33.8684 7.06234 33.7038 6.8317C32.3022 4.86767 30.2263 2.96523 28.0311 1.83781Z" fill="#FFAAA8"/>
<path d="M29.7202 13.3302C30.0957 13.2473 30.3329 12.8756 30.25 12.5C30.167 12.1244 29.7953 11.8872 29.4197 11.9702C26.0919 12.7053 21.9582 14.3947 18.5932 15.9888C12.6029 18.8265 7.7016 23.7936 3.67211 28.9891C2.59597 30.3766 1.61188 31.8905 1.05497 33.4939C0.928784 33.8573 1.12103 34.2541 1.48437 34.3803C1.84771 34.5065 2.24455 34.3143 2.37074 33.9509C2.85523 32.5559 3.73438 31.1815 4.77274 29.8427C8.66763 24.8207 13.3983 19.991 19.1895 17.2475C22.5274 15.6663 26.548 14.031 29.7202 13.3302Z" fill="#FFAAA8"/>
<path d="M29.8754 36.106C31.9289 35.4215 34.4375 35.765 35.5974 36.0613C35.5798 36.2671 35.5316 36.5394 35.4331 36.8184C35.3029 37.1872 35.0922 37.5476 34.7699 37.7894C33.8565 38.4744 32.0398 39.6073 29.7789 39.8334C28.889 39.9224 27.7196 39.7554 26.6035 39.5014C25.7307 39.3028 24.905 39.0544 24.2953 38.846C25.5481 38.0773 27.9121 36.7604 29.8754 36.106Z" fill="white"/>
<path fill-rule="evenodd" clip-rule="evenodd" d="M34.7994 12.6269C33.2683 10.2483 29.1495 4.8927 28.5983 5.26099C28.0471 5.62928 29.7467 11.3992 30.6654 14.2381C26.6078 15.389 17.8497 18.2433 15.2774 20.453C14.8713 20.8018 14.3444 21.2241 13.7346 21.7127C9.51515 25.0939 1.32541 31.6565 1.72675 39.0978C2.18609 47.6145 9.3059 54.7502 15.2774 55.4407C21.2488 56.1313 29.9763 54.0596 35.4885 48.5352C39.8981 44.1158 41.7661 39.0211 42.1489 37.0261C42.9145 38.2538 44.6753 40.8932 45.594 41.6298C46.5127 42.3664 47.3548 43.0109 47.661 43.2411C47.5079 44.7756 47.4773 48.3051 48.5797 50.1465C49.9578 52.4483 52.9435 54.7502 55.4699 56.3614C57.491 57.6505 59.0681 60.5814 59.604 61.8858C61.2117 58.8934 64.0596 52.034 62.5897 48.5352C61.1198 45.0365 55.8527 41.86 53.4028 40.7091C53.1732 39.5581 52.5301 36.888 51.7951 35.4149C51.0602 33.9417 49.9578 32.3458 49.4984 31.732C51.2592 31.1181 55.1024 29.246 56.3886 26.6679C57.9963 23.4454 59.1446 20.453 57.3072 18.3814C55.4699 16.3098 50.6468 14.2382 43.9863 12.6269C38.6579 11.3378 36.254 12.0898 34.7994 12.6269ZM35.9013 35.6626C34.7977 35.3472 32.0207 34.9014 29.7284 35.6655C27.4722 36.4176 24.7291 38.0086 23.6406 38.7084L23.2514 38.9586L23.6846 39.121C24.3125 39.3565 25.3672 39.6963 26.5003 39.9541C27.6283 40.2108 28.8577 40.3921 29.8249 40.2954C32.2068 40.0572 34.1045 38.8687 35.0482 38.1608C35.4687 37.8454 35.7223 37.3933 35.8707 36.9729C36.0192 36.5521 36.0697 36.1428 36.0697 35.8858V35.7107L35.9013 35.6626Z" fill="white"/>
<path fill-rule="evenodd" clip-rule="evenodd" d="M29.5291 7.82034C28.8838 8.27549 29.0232 9.09409 30.1724 11.5972C30.9584 13.309 31.188 13.9893 31.1246 14.419C31.0228 15.1113 31.879 17.778 33.5964 22.1169C35.0002 25.6638 36.3479 28.4412 38.6365 32.5036L40.2324 35.3371L39.8405 35.703C39.6249 35.9042 39.0804 36.7485 38.6307 37.5792C38.181 38.4099 36.8445 40.5666 35.6606 42.3717C32.6809 46.9153 29.1027 50.3836 23.856 51.9561C19.3994 53.2923 14.3025 52.4037 10.2547 50.2441C7.90337 48.9897 7.3512 48.5575 5.28845 46.3568C3.78792 44.756 2.64138 42.6758 2.64138 42.6758C2.64138 42.6758 2.46376 44.4752 4.19504 48.1969C7.67712 55.6823 19.0694 56.6166 25.7871 54.4003C34.562 51.5056 38.7767 47.1684 42.3722 38.5977L42.1957 36.8314C42.1957 36.8314 46.3648 41.8374 47.0558 42.5551C48.9294 44.5005 48.8133 44.2648 48.8133 46.1233C48.8133 48.1129 49.197 49.4097 50.3959 51.4724C51.5073 53.3843 53.7972 55.6263 56.4408 57.39L57.7155 58.2404L57.6809 59.037C57.6532 59.6817 57.725 59.8977 58.0582 60.1694C58.7994 60.7738 59.4083 60.5398 60.0644 59.3985C60.3045 58.9808 60.5531 58.3591 60.6166 58.017C60.7037 57.5498 60.8715 57.3287 61.2915 57.1284C62.5186 56.5433 63.0998 54.7469 62.9841 51.8962C62.9068 49.9873 62.5029 48.8076 61.796 48.4265C61.3345 48.1779 60.9015 48.3764 60.9015 48.8369C60.9015 49.1221 60.7598 49.0006 60.3279 48.3434C59.6419 47.3 58.9277 46.7268 58.5131 46.8871C58.1898 47.012 58.1834 46.9209 58.6894 49.4451C59.1371 51.6778 59.0268 51.9 58.1193 50.5939C56.8349 48.7456 55.5977 47.3536 55.2391 47.3536C54.7526 47.3536 54.8116 47.7036 55.6245 49.6347C56.022 50.5795 56.4618 51.6323 56.6016 51.9744L56.8557 52.5965L56.1361 51.7967C54.7341 50.239 53.5281 48.677 53.1609 47.9433C52.7038 47.0303 51.7251 44.3547 51.7251 44.0186C51.7251 43.8836 52.1532 43.3789 52.6766 42.8972C53.6969 41.958 54.1103 41.155 54.2949 39.754C54.4812 38.3392 53.7945 37.5127 52.783 37.9347C52.2649 38.1508 52.001 38.6436 51.8243 39.725C51.7671 40.0746 51.4913 40.6764 51.4913 40.6764C51.0663 41.0703 50.0807 39.8491 49.7858 39.5637L50.7463 38.557C51.937 37.3089 52.3998 36.2287 52.0784 35.4472C51.6836 34.487 50.6054 34.4842 50.0508 35.4417C49.8554 35.7792 49.2722 36.486 48.7548 37.0125L47.8143 37.9693C47.6024 37.7689 46.9604 37.0292 46.9604 37.0292C46.9604 37.0292 49.6073 35.2842 49.6073 33.7774C49.6073 33.1292 49.3402 32.7803 48.8438 32.7803C48.6516 32.7803 48.021 33.3012 47.3928 33.9789C46.7817 34.6382 46.2453 35.138 46.2006 35.0897C46.1558 35.0413 45.359 33.8422 44.4297 32.4249C43.5006 31.0075 42.1111 28.9282 41.342 27.8041C40.5731 26.68 39.7666 25.4004 39.5499 24.9605C39.333 24.5207 38.4403 22.9386 37.5658 21.4448C36.6629 19.9023 35.2992 17.1761 34.4098 15.1356C32.1269 9.89846 31.4027 8.44273 30.8438 7.96768C30.2585 7.47005 30.0577 7.44748 29.5291 7.82034ZM34.0023 11.555C33.6128 11.9474 33.6483 12.1445 34.2986 13.1988C36.0148 15.9805 46.7537 31.2411 47.4216 31.8473C48.0386 32.4071 48.6315 32.3602 49.1059 31.714C49.3212 31.4208 49.6026 31.1808 49.7314 31.1808C50.2894 31.1808 53.0634 29.8936 54.0686 29.1681C55.6199 28.0486 57.6502 25.8767 58.0721 24.8853C58.606 23.6311 58.9604 22.0871 58.9585 21.025C58.5131 17.5466 55.2391 17.5466 55.2391 17.5466C55.2391 17.5466 56.597 18.9993 56.4408 20.5194C56.0476 24.3442 53.5865 27.0781 50.0379 28.5104L48.3792 29.18L45.9492 25.7327C44.6128 23.8368 43.4958 22.2175 43.4677 22.1342C43.4393 22.051 43.7569 21.8059 44.1735 21.5896C45.7421 20.7753 46.3946 19.7106 46.064 18.5049C45.8566 17.7485 45.2962 17.2233 44.3302 16.8802C43.395 16.5478 41.4621 16.538 40.5634 16.861L39.9021 17.0986L38.597 15.2981C36.6269 12.5803 35.2762 11.2758 34.432 11.2758C34.3482 11.2758 34.1549 11.4015 34.0023 11.555ZM26.2251 20.5194C24.9466 20.7515 23.8643 21.1695 23.1782 21.6966C20.675 23.6196 22.0557 26.3773 25.5192 26.3729C29.0479 26.3684 31.0138 25.6261 31.4057 24.1505C31.7617 22.8101 31.1534 21.3799 29.9619 20.7558C29.3403 20.4302 27.3947 20.307 26.2251 20.5194ZM16.9605 26.6185C15.5849 27.0052 14.4525 27.6784 13.2264 28.8381C11.324 30.6373 10.7969 32.3126 11.7675 33.4742C12.6251 34.5007 13.9338 34.535 15.7689 33.5794C18.0911 32.3701 19.6366 30.6205 20.0391 28.7455C20.1794 28.092 19.8006 27.1225 19.2763 26.7927C18.7326 26.4507 17.8052 26.3809 16.9605 26.6185ZM32.9309 32.7014C32.0287 33.012 22.339 33.8602 25.8866 36.67C26.62 37.251 26.9373 37.27 27.8525 36.788C28.8586 36.2582 31.7825 35.5034 33.5964 35.4472C36.6297 35.3533 35.986 36.5036 35.986 36.5036C35.986 36.5036 36.7005 33.6889 35.4392 33.1445C34.7153 32.8319 33.286 32.5795 32.9309 32.7014ZM9.98995 38.0825C9.1316 38.4936 8.59602 39.0572 8.23373 39.9305C7.88114 40.7802 7.89596 41.5337 8.2879 42.6758C8.99519 44.737 10.0466 45.592 11.9302 45.6379C12.9931 45.6637 13.0919 45.6306 13.6919 45.0459C14.9738 43.7969 15.2289 41.0748 14.2179 39.4354C13.3199 37.9789 11.4535 37.3816 9.98995 38.0825Z" fill="black"/>
<path fill-rule="evenodd" clip-rule="evenodd" d="M26.5139 3.35918C26.0923 3.78034 26.0003 4.13519 26.0777 5.04043C26.1157 5.48687 27.4399 8.83912 28.699 11.677C29.0872 12.5522 29.3485 13.3288 29.2797 13.4028C29.2107 13.4767 27.614 14.0581 25.7314 14.6946C23.8489 15.3309 22.0705 15.9747 21.7796 16.1251C21.4888 16.2754 20.2474 16.7949 19.0212 17.2797C14.7474 18.9687 13.8739 19.5817 8.70164 24.5206C5.6155 27.4676 4.36488 29.0026 2.74467 31.8326C0.431479 35.8733 -0.246999 39.814 0.796988 43.1456C1.20514 44.4477 3.37503 48.4604 4.37142 49.7553C5.30307 50.9661 6.97865 52.3867 8.61159 53.3503C9.31572 53.7656 10.3206 54.4033 10.8446 54.7674C12.2249 55.7262 13.4118 56.1069 15.9538 56.4059C22.64 57.1926 26.9605 56.2372 31.5851 52.9491C35.3239 50.2907 38.514 47.2766 39.9633 45.033C40.6783 43.9262 41.4498 42.3961 42.4161 40.1685L42.6351 39.6639L43.2823 40.6379C44.22 42.0494 44.9846 42.8694 45.9396 43.4877L46.781 44.0326L46.8532 46.0659C46.9739 49.4581 47.7962 51.6657 49.5613 53.3356C50.123 53.8671 51.8166 55.1739 53.3248 56.2395C54.833 57.3051 56.3959 58.5037 56.798 58.9029C57.5464 59.6462 58.9862 62.3195 58.9862 62.9659C58.9862 63.775 60.0009 64.034 60.4862 63.3487C60.641 63.1298 60.9375 62.3939 61.1451 61.7132C61.3524 61.0325 61.8678 59.7898 62.2901 58.9515C64.1629 55.2345 64.4515 50.6055 63.0383 46.9499C61.8234 43.8073 58.9849 41.2661 55.7433 40.419L54.6554 40.1347L54.6039 39.3432C54.5045 37.8108 53.92 36.5155 52.1749 33.9612L51.0279 32.2822L53.072 31.3002C55.851 29.9652 57.0077 28.8128 58.3684 26.0242C59.9001 22.8848 60.0383 20.8945 58.8878 18.5389C58.2297 17.1911 56.8929 16.0804 54.2823 14.7126C50.296 12.6238 48.4074 11.9972 43.4923 11.1319C40.6061 10.6238 38.9662 10.6318 36.3664 11.1662C35.6508 11.3133 35.0456 11.409 35.0213 11.3786C34.9971 11.3482 33.8801 9.81173 32.5388 7.9641C31.1976 6.11648 29.8524 4.3394 29.5495 4.01513C28.4584 2.84698 27.2811 2.59255 26.5139 3.35918ZM31.9821 11.0945C33.916 13.7471 34.9141 14.7862 35.8376 15.108C36.4614 15.3253 36.6162 15.0864 36.4445 14.1714C36.3056 13.4311 36.3627 13.4055 38.7242 13.1477C40.3756 12.9675 40.7156 12.9886 43.1834 13.4235C47.7705 14.2319 48.9097 14.5942 52.4731 16.3781C56.0789 18.1833 56.8249 18.8672 57.2237 20.7334C57.4921 21.9886 57.2166 23.2228 56.228 25.1965C55.1612 27.3263 54.0304 28.3617 51.5197 29.5076L49.6416 30.3649L48.6968 29.6676C47.8138 29.0159 46.7444 28.3852 46.5224 28.3852C46.0349 28.3852 47.7627 31.9788 48.7014 32.9175C49.0772 33.2934 49.7237 34.2773 50.138 35.1039C50.5522 35.9304 51.009 36.675 51.153 36.7583C51.8661 37.1707 52.5434 39.8695 52.1066 40.5584C51.9916 40.7396 52.6403 41.145 54.7939 42.238C58.7484 44.2451 60.1908 45.6399 61.0991 48.3346C61.5725 49.7387 61.558 50.8338 61.0318 53.4716C60.5982 55.6451 60.1287 56.7566 59.3448 57.4655C58.9593 57.8141 58.9589 57.8141 58.6228 57.3769C58.4377 57.1362 58.2845 56.8592 58.2824 56.7612C58.278 56.5574 56.3729 55.2577 55.4478 54.8275C54.3644 54.3234 51.0497 51.7548 50.4945 50.9889C49.7884 50.0147 49.2854 48.3338 49.1651 46.5448C49.1114 45.7466 48.975 44.3973 48.8619 43.5464C48.677 42.1553 48.6186 41.9993 48.283 41.9993C47.7744 41.9993 46.3231 41.0564 46.0564 40.5525C45.9369 40.3273 45.5824 39.8246 45.2682 39.4356C44.9542 39.0467 44.042 37.5933 43.2413 36.2061C41.4473 33.0982 40.8366 32.5414 40.0258 33.2748C39.5334 33.7202 39.6348 34.4882 40.3614 35.8161L41.0206 37.0208L40.5116 38.4934C38.7502 43.5879 36.6631 46.2697 31.4096 50.1883C28.6168 52.2714 27.1592 53.054 24.7527 53.7626C22.7327 54.3574 20.8151 54.4767 17.4804 54.2154C14.2787 53.9643 13.3756 53.7239 12.0085 52.759C11.4281 52.3492 10.2367 51.5416 9.36101 50.9641C6.71769 49.2213 5.97836 48.3587 4.07544 44.7969C2.75794 42.3308 2.45453 40.9754 2.72415 38.7588C2.95697 36.8454 3.40245 35.454 4.34683 33.6894C5.8416 30.8968 6.98236 29.4307 9.80136 26.6796C14.769 21.8314 16.0072 20.9145 19.2823 19.6583C20.1502 19.3253 21.4975 18.7721 22.2759 18.4289C24.387 17.4982 30.212 15.58 30.2828 15.7922C30.3162 15.8925 30.7463 16.6495 31.2387 17.4749C32.2496 19.1696 32.7639 19.5499 33.4434 19.1048C34.0301 18.7208 33.9823 18.102 33.2472 16.5694C32.9081 15.862 32.2756 14.3864 31.8418 13.29C31.4078 12.1937 30.7699 10.6532 30.4238 9.86689C29.406 7.55338 29.3929 7.54295 31.9821 11.0945ZM32.617 32.9536C32.3961 33.1323 32.2703 33.3671 32.3372 33.4755C32.4042 33.5837 32.9771 33.9272 33.6103 34.2388C34.2436 34.5503 34.797 34.8624 34.8402 34.9322C34.8833 35.002 34.2206 35.0194 33.3673 34.9707C31.9685 34.891 30.0411 35.0535 28.394 35.3899C27.8801 35.495 27.806 35.4704 27.9001 35.2252C28.0485 34.8388 27.3978 34.3966 26.6811 34.3966C25.0294 34.3966 23.0181 36.2193 22.6331 38.0648C22.3444 39.4498 23.4092 40.7543 25.1402 41.1354C26.6203 41.4613 30.3295 41.4139 31.721 41.0511C34.2257 40.3982 36.0657 38.919 37.0969 36.7291C37.9109 35.0004 37.5721 33.8698 35.9894 33.0333C34.9936 32.5069 33.2207 32.465 32.617 32.9536ZM34.153 37.1218C33.0277 38.5963 29.8433 39.3978 26.6569 39.0083C25.2557 38.837 24.8454 38.7293 25.0328 38.582C25.2279 38.4287 29.1449 37.1985 30.2372 36.9476C31.3569 36.6902 34.3827 36.3504 34.552 36.463C34.59 36.4881 34.4104 36.7846 34.153 37.1218Z" fill="#323239"/>
</g>
</g>
</g>
<defs>
<clipPath id="clip0_5_1460">
<rect width="65" height="65" fill="white" transform="translate(0.319946 0.600098)"/>
</clipPath>
<clipPath id="clip1_5_1460">
<rect width="65" height="65" fill="white" transform="translate(0.319946 0.600098)"/>
</clipPath>
<clipPath id="clip2_5_1460">
<rect width="65" height="65" fill="white" transform="translate(0.319946 0.600098)"/>
</clipPath>
</defs>
</svg>
